REM DIRINDEX 1\2\4,1\2\5,1\3\6,1\3\7,1\3\8
REM DIRNAME folder01,folder02,folder03,folder04,folder05,folder06,folder07,folder08
TITLE ""
FILE "LV4_065_WORDS.mp3" MP3
  TRACK 01 AUDIO
    TITLE "0:"
    INDEX 01 00:00:00
  TRACK 02 AUDIO
    TITLE "6:cjc094_2285"
    INDEX 01 00:00:05
  TRACK 03 AUDIO
    TITLE "0:"
    INDEX 01 00:01:69
  TRACK 04 AUDIO
    TITLE "7:cjc094_2286"
    INDEX 01 00:02:57
  TRACK 05 AUDIO
    TITLE "0:"
    INDEX 01 00:03:53
  TRACK 06 AUDIO
    TITLE "8:cjc094_2287"
    INDEX 01 00:03:74
  TRACK 07 AUDIO
    TITLE "0:"
    INDEX 01 00:07:17
  TRACK 08 AUDIO
    TITLE "7:cjc094_2288"
    INDEX 01 00:07:64
  TRACK 09 AUDIO
    TITLE "0:"
    INDEX 01 00:08:64
  TRACK 10 AUDIO
    TITLE "8:cjc094_2289"
    INDEX 01 00:09:06
  TRACK 11 AUDIO
    TITLE "0:"
    INDEX 01 00:11:09
  TRACK 12 AUDIO
    TITLE "7:cjc094_2290"
    INDEX 01 00:11:60
  TRACK 13 AUDIO
    TITLE "0:"
    INDEX 01 00:12:69
  TRACK 14 AUDIO
    TITLE "8:cjc094_2291"
    INDEX 01 00:13:14
  TRACK 15 AUDIO
    TITLE "0:"
    INDEX 01 00:14:19
  TRACK 16 AUDIO
    TITLE "7:cjc094_2292"
    INDEX 01 00:14:74
  TRACK 17 AUDIO
    TITLE "0:"
    INDEX 01 00:16:06
  TRACK 18 AUDIO
    TITLE "8:cjc094_2293"
    INDEX 01 00:16:24
  TRACK 19 AUDIO
    TITLE "0:"
    INDEX 01 00:17:69
  TRACK 20 AUDIO
    TITLE "7:cjc094_2294"
    INDEX 01 00:18:39
  TRACK 21 AUDIO
    TITLE "0:"
    INDEX 01 00:19:52
  TRACK 22 AUDIO
    TITLE "8:cjc094_2295"
    INDEX 01 00:19:73
  TRACK 23 AUDIO
    TITLE "0:"
    INDEX 01 00:20:69
  TRACK 24 AUDIO
    TITLE "7:cjc094_2296"
    INDEX 01 00:21:43
  TRACK 25 AUDIO
    TITLE "0:"
    INDEX 01 00:22:42
  TRACK 26 AUDIO
    TITLE "8:cjc094_2297"
    INDEX 01 00:22:58
  TRACK 27 AUDIO
    TITLE "0:"
    INDEX 01 00:24:31
  TRACK 28 AUDIO
    TITLE "7:cjc094_2298"
    INDEX 01 00:25:09
  TRACK 29 AUDIO
    TITLE "0:"
    INDEX 01 00:25:72
  TRACK 30 AUDIO
    TITLE "8:cjc094_2299"
    INDEX 01 00:26:18
  TRACK 31 AUDIO
    TITLE "0:"
    INDEX 01 00:27:55
  TRACK 32 AUDIO
    TITLE "7:cjc094_2300"
    INDEX 01 00:28:33
  TRACK 33 AUDIO
    TITLE "0:"
    INDEX 01 00:29:21
  TRACK 34 AUDIO
    TITLE "8:cjc094_2301"
    INDEX 01 00:29:46
  TRACK 35 AUDIO
    TITLE "0:"
    INDEX 01 00:30:63
  TRACK 36 AUDIO
    TITLE "7:cjc094_2302"
    INDEX 01 00:31:33
  TRACK 37 AUDIO
    TITLE "0:"
    INDEX 01 00:32:29
  TRACK 38 AUDIO
    TITLE "8:cjc094_2303"
    INDEX 01 00:32:48
  TRACK 39 AUDIO
    TITLE "0:"
    INDEX 01 00:33:54
  TRACK 40 AUDIO
    TITLE "7:cjc094_2304"
    INDEX 01 00:34:34
  TRACK 41 AUDIO
    TITLE "0:"
    INDEX 01 00:35:55
  TRACK 42 AUDIO
    TITLE "8:cjc094_2305"
    INDEX 01 00:35:74
  TRACK 43 AUDIO
    TITLE "0:"
    INDEX 01 00:37:18
  TRACK 44 AUDIO
    TITLE "7:cjc094_2306"
    INDEX 01 00:37:69
  TRACK 45 AUDIO
    TITLE "0:"
    INDEX 01 00:39:07
  TRACK 46 AUDIO
    TITLE "8:cjc094_2307"
    INDEX 01 00:39:31
  TRACK 47 AUDIO
    TITLE "0:"
    INDEX 01 00:41:28
  TRACK 48 AUDIO
    TITLE "7:cjc094_2308"
    INDEX 01 00:42:00
  TRACK 49 AUDIO
    TITLE "0:"
    INDEX 01 00:43:07
  TRACK 50 AUDIO
    TITLE "8:cjc094_2309"
    INDEX 01 00:43:25
  TRACK 51 AUDIO
    TITLE "0:"
    INDEX 01 00:44:44
  TRACK 52 AUDIO
    TITLE "7:cjc094_2310"
    INDEX 01 00:45:18
  TRACK 53 AUDIO
    TITLE "0:"
    INDEX 01 00:46:33
  TRACK 54 AUDIO
    TITLE "8:cjc094_2311"
    INDEX 01 00:46:58
  TRACK 55 AUDIO
    TITLE "0:"
    INDEX 01 00:48:24
  TRACK 56 AUDIO
    TITLE "7:cjc094_2312"
    INDEX 01 00:49:00
  TRACK 57 AUDIO
    TITLE "0:"
    INDEX 01 00:50:07
  TRACK 58 AUDIO
    TITLE "8:cjc094_2313"
    INDEX 01 00:50:27
  TRACK 59 AUDIO
    TITLE "0:"
    INDEX 01 00:52:43
  TRACK 60 AUDIO
    TITLE "7:cjc094_2314"
    INDEX 01 00:53:19
  TRACK 61 AUDIO
    TITLE "0:"
    INDEX 01 00:54:27
  TRACK 62 AUDIO
    TITLE "8:cjc094_2315"
    INDEX 01 00:54:48
  TRACK 63 AUDIO
    TITLE "0:"
    INDEX 01 00:55:55
  TRACK 64 AUDIO
    TITLE "7:cjc094_2316"
    INDEX 01 00:56:33
  TRACK 65 AUDIO
    TITLE "0:"
    INDEX 01 00:57:54
  TRACK 66 AUDIO
    TITLE "8:cjc094_2317"
    INDEX 01 00:57:74
  TRACK 67 AUDIO
    TITLE "0:"
    INDEX 01 00:59:55
  TRACK 68 AUDIO
    TITLE "7:cjc094_2318"
    INDEX 01 01:00:25
  TRACK 69 AUDIO
    TITLE "0:"
    INDEX 01 01:01:36
  TRACK 70 AUDIO
    TITLE "8:cjc094_2319"
    INDEX 01 01:01:58
  TRACK 71 AUDIO
    TITLE "0:"
    INDEX 01 01:03:08
